<svg version="1.1" id="Layer_1" xmlns="http://www.w3.org/2000/svg" xmlns:xlink="http://www.w3.org/1999/xlink" x="0px" y="0px"
	 width="100%" viewBox="0 0 896 768" enable-background="new 0 0 896 768" xml:space="preserve">
<path fill="#000000" opacity="1.000000" stroke="none" 
	d="
M760.639038,486.474243 
	C746.162292,480.643982 730.339294,486.034973 721.722534,497.854340 
	C718.693481,502.009186 718.122070,506.860352 716.948975,511.342163 
	C712.996521,526.443359 697.210388,533.153137 683.758911,532.907837 
	C667.286011,532.607361 650.796570,532.071472 634.335938,532.490295 
	C603.844971,533.265991 573.346558,533.317749 542.874451,532.752686 
	C509.394073,532.131958 475.903503,531.952820 442.430481,531.709595 
	C411.972168,531.488220 381.468903,533.139404 350.993561,532.731812 
	C332.358887,532.482605 313.703217,532.289001 295.098969,532.605042 
	C276.596069,532.919373 258.138184,532.126831 239.662552,532.018250 
	C228.349533,531.951721 218.360825,527.734863 213.280518,516.628662 
	C211.400787,512.519287 209.834396,508.168274 208.606125,503.674408 
	C206.451584,495.791534 200.649490,490.422638 193.289108,487.029266 
	C182.745483,482.168274 172.175674,483.493958 161.943619,487.954803 
	C151.383011,492.558929 141.238373,498.191711 130.487549,502.250977 
	C125.705437,504.056641 120.420906,505.798309 115.173294,506.037476 
	C103.578682,506.565857 91.727654,507.407318 80.740074,502.892151 
	C71.858795,499.242493 64.089058,493.755188 57.688759,486.136444 
	C46.867680,473.255371 44.767498,458.425476 48.247231,443.029327 
	C50.764610,431.891174 58.110104,423.123169 67.466370,416.068817 
	C87.108162,401.259552 108.705360,403.159729 130.343826,408.903259 
	C139.115753,411.231598 146.972443,416.825867 155.497482,420.319397 
	C163.496643,423.597412 171.162292,428.622498 180.358276,427.638428 
	C192.467941,426.342590 201.815353,420.446411 208.088928,409.888641 
	C208.998108,408.358612 208.696884,406.658264 208.810913,405.011566 
	C209.700470,392.166016 215.269302,381.931946 227.093460,376.508270 
	C231.669189,374.409363 237.245468,373.817902 242.684326,373.900848 
	C289.328674,374.611969 335.978180,374.248230 382.616119,373.581299 
	C422.097168,373.016724 461.574341,373.008301 501.052246,373.105255 
	C544.356384,373.211639 587.663513,373.502472 630.961365,374.203491 
	C649.951172,374.510925 668.906555,374.737671 687.904846,374.267029 
	C706.116699,373.815826 717.918457,386.875488 718.823914,404.353180 
	C719.178589,411.199585 722.924561,415.559570 727.620056,419.179565 
	C735.526550,425.275024 744.433044,429.670197 754.751953,426.830658 
	C762.358032,424.737640 769.715881,421.668701 776.776550,418.013031 
	C792.236694,410.008606 808.192566,404.407776 826.078857,404.824097 
	C848.602722,405.348358 865.245911,415.590332 876.180847,434.534821 
	C880.635925,442.253082 881.811462,451.422272 880.705017,460.942230 
	C879.254333,473.423981 873.659973,483.177887 864.814453,491.478912 
	C858.603027,497.307892 851.244324,500.789520 843.149048,503.701080 
	C834.727478,506.730011 826.442993,505.958038 818.049438,506.170654 
	C807.756714,506.431458 798.415283,502.552216 789.050537,498.922913 
	C779.522949,495.230438 771.140076,488.941559 760.639038,486.474243 
M240.885590,417.426178 
	C237.833633,422.536377 235.501099,427.915375 233.919144,433.694336 
	C232.400589,439.241699 230.084915,444.565948 230.095947,450.473022 
	C230.102478,453.967316 229.763855,457.462097 229.764648,460.956604 
	C229.767151,472.034668 228.699295,483.251221 232.406143,493.978882 
	C235.205643,502.080688 239.680252,509.949738 248.587662,511.370605 
	C260.574097,513.282654 272.833801,513.181091 283.587006,505.477570 
	C286.217529,503.593048 289.441650,502.487671 292.485138,501.251160 
	C293.883911,500.682831 295.589935,500.737946 296.485046,502.307220 
	C297.575165,504.218323 295.852417,504.842804 294.686829,505.747772 
	C289.693970,509.624298 283.800293,511.775543 277.107513,514.668335 
	C325.714417,514.668335 373.244995,514.668335 420.775543,514.668335 
	C401.206604,511.400024 382.003052,507.065887 363.479706,498.563751 
	C365.917816,495.105469 368.745178,495.317352 370.790894,496.317108 
	C377.579163,499.634583 385.092255,498.746460 392.182587,500.462677 
	C405.498810,503.685913 419.403107,503.591766 432.929382,506.392731 
	C440.758728,508.013977 449.051392,507.670074 457.161713,508.680267 
	C481.077209,511.659088 504.957520,508.277222 528.825073,506.590973 
	C529.638428,506.533478 530.530762,506.345703 531.216553,505.935089 
	C535.149353,503.580353 539.465454,503.604553 543.815125,503.737823 
	C547.824646,503.860687 551.709167,503.275269 555.668945,502.500031 
	C559.788696,501.693542 564.295349,500.389740 568.880066,503.177704 
	C564.879639,508.270264 559.428711,509.941162 554.304321,510.911377 
	C548.867004,511.940857 543.724854,514.129333 538.196899,514.631348 
	C565.724792,514.631348 593.252686,514.631348 620.780579,514.631348 
	C613.513245,512.987183 606.457397,510.415405 598.822754,511.141052 
	C594.863831,511.517303 590.833191,511.194031 586.837280,511.092499 
	C585.637939,511.062042 584.515991,510.566406 584.262817,509.178650 
	C584.090393,508.233673 584.662476,507.303253 585.469238,507.275269 
	C590.360229,507.105560 594.282837,503.781555 599.333130,503.627991 
	C610.140808,503.299377 620.124329,506.727875 630.412537,509.023712 
	C645.937500,512.488220 661.800293,512.945557 677.570740,511.644012 
	C687.106628,510.857025 696.063110,503.313019 694.929077,492.352448 
	C694.421570,487.446838 695.339661,482.394989 695.595947,477.408752 
	C696.032471,468.915588 695.807007,460.555511 692.129272,452.584442 
	C690.985291,450.104858 689.114380,448.219421 687.868286,445.879120 
	C687.236389,444.692261 686.401001,443.450653 687.560242,442.228760 
	C688.724548,441.001495 689.988770,441.613861 691.143860,442.432648 
	C692.637878,443.491730 694.108643,444.651184 696.243347,443.495392 
	C696.391846,442.925568 696.570618,442.297546 696.718628,441.662354 
	C698.418945,434.364929 695.619202,427.428986 694.073914,420.661926 
	C692.420654,413.422668 687.715820,408.100311 678.898804,406.997955 
	C674.055176,406.392395 669.733704,405.890259 664.924683,407.126892 
	C660.308167,408.314026 655.223755,407.686432 650.611267,408.883057 
	C641.191589,411.326752 631.670959,410.817078 622.343567,409.771759 
	C611.735901,408.582947 601.778015,404.025726 591.489685,401.172150 
	C581.718689,398.462097 573.410583,400.847992 565.030579,403.876831 
	C555.169922,407.440918 545.300537,410.561401 534.901978,411.898621 
	C532.721680,412.178986 530.558044,411.931427 528.585144,410.863586 
	C527.516052,410.284882 526.685364,409.446991 526.914856,408.076660 
	C527.105042,406.940857 528.024902,406.197144 528.977417,406.177368 
	C533.432983,406.084595 537.203430,403.662720 541.400085,402.719757 
	C549.848450,400.821564 556.254150,394.744141 564.074951,391.490173 
	C552.724243,391.490173 541.373474,391.490173 529.499695,391.490173 
	C531.682007,393.127441 533.288269,394.420837 535.570740,394.780518 
	C538.617798,395.260681 541.535156,397.162048 540.670166,400.277313 
	C539.754456,403.575195 536.089417,402.591888 533.773376,401.625549 
	C519.229797,395.557343 504.088715,393.806488 488.452606,394.122772 
	C473.753784,394.420074 460.038147,398.563477 446.737396,404.066681 
	C439.104889,407.224609 431.282257,409.831177 423.592712,412.776764 
	C410.807159,417.674408 397.621918,414.127411 384.883270,411.990051 
	C375.280243,410.378784 366.527405,411.119263 357.771362,414.733276 
	C355.600098,415.629456 353.164886,417.212250 351.610016,414.475830 
	C349.986877,411.619202 352.900513,410.151947 354.707214,409.118042 
	C361.063202,405.480774 367.579498,402.439362 375.310913,402.646271 
	C381.645691,402.815857 387.789551,403.463501 394.016724,404.761871 
	C414.599213,409.053223 432.708252,402.152832 449.801941,391.527496 
	C438.823883,391.527496 427.808685,391.527496 416.174774,391.527496 
	C418.202484,393.579712 419.875946,394.696808 422.214813,394.796204 
	C424.488403,394.892822 426.214539,395.919128 425.744904,398.527344 
	C425.238281,401.340912 423.145508,400.935364 421.047577,400.536346 
	C412.071411,398.829102 402.873993,397.944519 393.879822,397.455109 
	C356.443939,395.418060 318.934845,396.096741 281.447998,396.124420 
	C264.420929,396.136993 251.000732,402.824799 240.885590,417.426178 
M93.042046,487.705963 
	C101.693558,488.155151 110.535965,489.183807 118.922630,487.114227 
	C130.650574,484.220123 140.958481,477.532593 151.965439,472.674774 
	C160.384262,468.959229 169.271179,467.000366 178.269775,465.975952 
	C184.921326,465.218719 191.339157,467.984375 197.534180,470.149628 
	C203.988373,472.405396 205.289215,471.872009 204.779663,464.933502 
	C204.609848,462.621246 204.100876,460.332947 203.728058,458.036774 
	C203.095947,454.143890 203.277466,451.041809 208.541931,453.276215 
	C208.541931,447.744324 208.541931,442.626831 208.541931,437.625763 
	C206.876205,436.878265 205.535019,437.342010 204.467422,438.049774 
	C199.117188,441.596802 193.156113,442.900909 186.918777,444.164062 
	C177.908524,445.988770 168.949768,445.000732 160.853806,442.366119 
	C149.668549,438.726166 139.383621,432.388916 128.556030,427.558990 
	C119.563072,423.547455 110.090218,420.738342 100.139702,421.998962 
	C92.586006,422.955933 85.278358,425.203705 78.849243,429.690674 
	C68.399315,436.983826 58.621365,453.594604 67.194031,468.084991 
	C72.901779,477.732788 80.775978,485.050262 93.042046,487.705963 
M790.695801,479.790466 
	C798.319275,483.622345 805.958374,487.394257 814.726379,487.814636 
	C818.218384,487.982025 821.707336,488.428284 825.195923,488.410034 
	C836.359436,488.351685 846.379639,485.431671 854.234741,476.839050 
	C870.022095,459.569275 865.162292,443.299316 850.503357,431.167389 
	C836.797119,419.823883 820.580994,419.751160 804.358826,425.540405 
	C788.913879,431.052246 775.272522,440.872070 758.816711,444.176727 
	C748.358032,446.277069 738.563293,445.068146 728.926086,441.104492 
	C726.550842,440.127594 725.261597,439.959900 723.878113,442.755554 
	C721.023438,448.524200 723.553711,453.432770 726.036377,458.083771 
	C729.421265,464.425140 729.347412,466.750641 724.129944,469.217773 
	C721.953979,468.279327 722.732849,464.605865 719.403381,464.345825 
	C718.986633,467.543671 717.960938,470.672485 720.488281,473.758606 
	C721.543518,473.281250 722.419067,472.867157 723.308594,472.485718 
	C732.975403,468.340454 742.883606,464.395813 753.562988,466.099457 
	C766.493347,468.162140 778.620483,472.958862 790.695801,479.790466 
z"/>
<path fill="#000000" opacity="1.000000" stroke="none" 
	d="
M416.229462,251.488617 
	C420.881836,252.931763 425.193665,254.020218 429.452789,255.315247 
	C437.986664,257.910095 445.441681,254.146164 451.378265,248.625610 
	C457.425781,243.001923 463.879547,243.964462 470.475616,245.554184 
	C473.404938,246.260178 476.236908,246.781067 479.223358,247.023911 
	C487.819702,247.722900 496.301849,249.156952 504.563477,251.721390 
	C505.515015,252.016754 506.497650,252.584213 507.428345,252.515747 
	C514.951111,251.962555 521.815247,253.903519 528.421692,257.397400 
	C530.087402,258.278351 532.420105,258.451965 534.061279,256.803802 
	C539.647400,251.193787 546.708679,251.539566 553.002441,253.738510 
	C564.685547,257.820496 576.103821,262.720764 587.152466,268.452728 
	C590.870361,270.381500 595.347534,271.155701 599.575012,271.694733 
	C602.933472,272.122925 605.374146,274.154785 608.120483,275.474213 
	C619.196472,280.795288 629.832581,286.851746 637.914551,296.550171 
	C640.281555,299.390656 643.959961,300.621124 646.299194,304.024536 
	C655.170898,316.931976 650.033386,326.522064 640.647095,332.956635 
	C632.845947,338.304474 624.225037,342.193665 615.397949,345.635284 
	C612.173340,346.892548 609.104431,347.185608 605.679749,346.951477 
	C602.267090,346.718109 598.906738,347.817230 595.511292,348.735748 
	C589.676941,350.314117 583.991150,352.550049 577.889099,353.228180 
	C569.016968,354.214142 560.243713,355.785126 551.499756,357.687225 
	C544.604187,359.187317 537.807251,360.958496 530.603882,361.618225 
	C519.609009,362.625305 508.460663,363.322021 497.603088,365.909363 
	C494.239624,366.710846 490.666138,366.797699 487.180267,366.890198 
	C471.203369,367.314301 455.227722,366.700348 439.236908,368.047607 
	C427.312683,369.052338 415.337555,367.275330 403.466919,365.725159 
	C400.708832,365.364990 398.237213,366.368652 395.575562,366.397247 
	C383.384613,366.528168 371.616486,363.738464 359.660950,362.032074 
	C346.928314,360.214722 334.673981,356.367889 321.791321,355.048096 
	C308.359131,353.672028 298.581696,345.559204 293.459045,332.429504 
	C291.924255,328.495789 290.787506,324.766327 290.751007,320.474274 
	C290.666779,310.561829 294.651886,302.851410 301.415588,295.770935 
	C307.508240,289.392944 314.353394,284.434723 322.349518,281.089813 
	C327.292297,279.022156 332.741455,278.983887 338.006195,279.462067 
	C341.702118,279.797729 344.089966,279.455322 346.980316,276.259186 
	C352.057770,270.644562 357.737030,264.616394 364.442261,261.713898 
	C370.563721,259.064087 377.628235,257.549255 384.349396,255.799194 
	C386.756653,255.172424 389.133118,254.399231 391.477112,253.562515 
	C399.411926,250.730087 407.627289,251.106552 416.229462,251.488617 
M565.000000,332.000122 
	C565.000000,332.000122 564.994690,331.995392 565.131653,332.731506 
	C566.201233,338.798248 567.168152,339.253815 571.652649,335.707886 
	C573.274536,336.360840 574.698608,338.910400 576.792419,336.826050 
	C581.319275,332.319733 587.052429,330.064362 592.978088,328.401794 
	C592.598145,325.921356 590.603333,323.895142 592.904358,322.127655 
	C595.112122,321.307190 594.854187,324.463287 597.084045,324.152283 
	C601.971741,323.470551 604.325989,326.864807 602.950012,331.850372 
	C607.288269,335.348999 612.086243,335.702179 616.275696,332.322815 
	C622.878784,326.996429 631.171509,324.741547 637.847534,319.699066 
	C639.436401,318.498993 640.960632,319.534698 642.720154,319.154480 
	C642.166382,316.218079 644.612061,313.432831 642.885132,310.398773 
	C640.008240,311.320129 639.702454,314.708984 636.359558,316.136566 
	C635.953369,293.293396 618.192078,287.933807 601.259583,279.842072 
	C601.771606,281.698700 601.765625,282.267883 602.044434,282.591858 
	C603.798462,284.630035 605.396057,287.257263 602.798462,289.062103 
	C600.126831,290.918335 598.903198,287.390228 597.553650,285.887024 
	C592.976624,280.788849 588.231140,275.906616 581.911987,273.053619 
	C570.491699,267.897491 558.978210,262.946960 547.483154,257.957794 
	C545.708801,257.187683 543.927429,257.075317 542.584717,259.294281 
	C543.945190,261.965149 544.909790,264.882202 549.111206,262.619751 
	C550.986816,261.609772 552.532593,263.498230 553.976501,264.476013 
	C557.434509,266.817749 560.896912,268.994659 565.102234,269.850922 
	C566.662415,270.168549 568.395935,270.948639 569.479126,272.069855 
	C574.444336,277.209412 577.782227,283.526306 581.516907,289.542725 
	C581.867554,290.107513 581.746216,291.205170 581.455688,291.890961 
	C578.516174,298.829498 576.851746,305.996124 577.074402,313.580933 
	C577.133484,315.592743 576.763123,317.611450 573.812927,318.878204 
	C569.771301,312.935638 567.970337,305.583374 563.474365,299.404175 
	C562.632385,301.181152 562.617371,303.204742 560.108765,303.351654 
	C557.094666,300.424347 555.796082,296.149933 553.237000,292.755127 
	C549.212402,287.416229 547.376587,279.614532 538.625793,279.317200 
	C538.042114,279.297394 537.218201,278.344299 536.970398,277.657654 
	C534.009888,269.456177 526.259521,266.164032 520.176086,261.176514 
	C519.092957,260.288544 517.823608,259.894775 516.860413,260.876740 
	C515.175354,263.248505 519.120667,264.360413 517.527222,266.695892 
	C514.984985,266.507782 513.775146,264.411682 512.050903,262.951324 
	C504.502502,256.558228 496.244598,252.750305 486.172760,256.752045 
	C484.832581,257.284485 483.619873,257.201294 482.381165,256.419708 
	C477.090240,253.081161 470.722229,252.832840 465.088379,250.455124 
	C463.967102,249.981888 462.758545,250.075577 461.931702,251.181137 
	C461.353027,251.954834 461.604309,252.755875 462.068237,253.499161 
	C462.785583,254.648453 464.012939,255.179153 465.079163,254.600494 
	C469.794678,252.041290 471.231628,255.881149 473.055939,258.657043 
	C474.135956,260.300476 474.674133,263.184967 476.451111,263.279236 
	C480.674561,263.503326 481.805573,266.763580 483.685059,269.306274 
	C486.267761,272.800262 489.234894,275.912567 492.401154,278.854370 
	C493.517456,279.891510 494.696564,280.712921 496.420258,280.252655 
	C499.580658,279.408691 500.093719,281.481873 500.255646,283.893890 
	C500.466125,287.030243 500.288666,290.140320 501.159180,293.289917 
	C503.154205,300.508026 505.837860,307.353882 510.029816,313.589172 
	C511.275208,315.441589 511.152954,317.018158 508.498230,317.821136 
	C503.220856,311.915192 497.935364,306.000153 492.490509,299.906799 
	C491.230835,300.665741 491.704163,303.207184 489.697876,302.874634 
	C487.859222,302.569855 488.125427,301.086060 488.183228,299.725250 
	C488.201324,299.299438 487.938782,298.692474 487.601715,298.445648 
	C479.906036,292.810394 472.466339,286.788513 463.049683,281.394806 
	C464.514252,284.358246 465.394165,286.086426 466.225677,287.837616 
	C466.889526,289.235687 467.575317,290.878082 465.668915,291.677673 
	C463.924591,292.409302 463.607788,290.632233 462.961243,289.514465 
	C457.293793,279.717041 449.983643,271.979095 437.898834,269.874115 
	C436.518768,274.597626 434.221405,273.475281 431.614777,270.704895 
	C428.285492,267.166443 424.560638,263.956207 420.130798,262.040924 
	C414.729767,259.705719 409.553253,255.281311 402.920593,258.901093 
	C402.106628,259.345276 400.674255,258.482971 399.557831,258.576447 
	C394.824432,258.972900 389.542786,258.911224 386.047607,262.143005 
	C383.402618,264.588593 381.039246,265.392822 377.757843,265.522064 
	C373.963776,265.671570 370.054962,265.462921 366.443695,266.965271 
	C365.134796,267.509827 363.390900,268.060486 363.501831,269.945343 
	C363.629639,272.116394 365.599945,272.012238 366.936279,271.885834 
	C371.368591,271.466583 374.454559,273.447571 377.080231,276.742004 
	C377.884399,277.751068 379.041901,278.712921 380.236084,279.135437 
	C385.014252,280.826050 389.110046,283.536835 392.787811,286.945862 
	C393.563049,287.664429 394.138214,288.210724 395.323486,287.438721 
	C398.666138,285.261444 398.914459,288.016144 399.180481,290.157745 
	C399.425476,292.130219 399.019165,294.197693 399.363434,296.141174 
	C400.683044,303.590454 402.481415,310.787231 409.862671,314.955261 
	C411.651459,315.965332 414.400391,315.180145 415.319061,317.802155 
	C415.014038,319.783447 413.446167,319.923859 411.970642,320.188049 
	C402.183319,321.940308 396.412659,313.889008 388.588654,310.633453 
	C387.406738,312.005615 388.671997,314.818665 385.986450,315.382050 
	C385.664124,315.264801 385.276184,315.234833 385.074738,315.025452 
	C384.738129,314.675507 384.440918,314.241974 384.264771,313.790009 
	C380.665527,304.554657 374.989807,297.379028 365.950714,292.577087 
	C362.533844,290.761963 358.645081,291.800812 355.800812,289.614227 
	C346.486450,282.453644 336.562775,285.243378 326.748840,287.700287 
	C324.549835,288.250793 322.100830,289.674347 321.147156,292.256317 
	C320.638733,293.632874 319.782501,294.664764 318.410278,294.912140 
	C308.848175,296.635986 305.369659,304.252747 301.997986,311.882294 
	C300.433289,315.422913 300.899628,325.446686 302.421295,328.397858 
	C303.983032,319.142609 304.234497,318.788300 309.211273,318.965302 
	C309.211273,320.759033 309.247314,322.557953 309.205200,324.354980 
	C308.985718,333.719025 312.016785,336.681183 320.740479,340.350311 
	C326.971558,342.971130 333.020111,342.505920 339.242706,342.785248 
	C341.487427,342.886017 343.909790,342.689331 344.652222,345.312469 
	C343.526978,347.747955 339.545837,346.763153 340.051971,350.302094 
	C342.588715,350.955322 345.324921,351.505402 347.356873,350.027924 
	C350.018127,348.092834 352.249725,348.404755 354.693848,349.912262 
	C357.059357,351.371338 359.709961,351.495789 362.358002,351.855133 
	C368.450073,352.681854 374.857574,351.590424 380.544220,352.662994 
	C386.051056,353.701721 391.619751,353.340363 397.061584,354.528625 
	C399.059570,354.964874 401.144989,356.666290 403.163391,355.737671 
	C407.433289,353.773224 412.365021,358.249481 416.394409,354.214844 
	C416.633636,353.975311 418.166473,354.862091 418.984985,355.396729 
	C421.823456,357.251038 424.376007,357.029083 427.320465,355.252289 
	C430.673340,353.229034 434.162323,353.425781 436.909058,355.717896 
	C436.636414,358.925323 433.875122,356.592285 433.140747,358.375519 
	C436.344513,360.057007 438.821655,356.346069 441.542847,357.651794 
	C447.986176,360.743561 453.376343,356.728973 459.239868,355.569794 
	C464.369598,354.555695 469.827576,356.939972 474.966064,354.496429 
	C475.305267,354.335114 476.069489,355.137573 476.665009,355.433319 
	C479.667450,356.924316 482.409668,357.768768 482.362244,351.860626 
	C488.838287,355.569153 494.312378,353.545776 498.863647,349.556091 
	C505.207550,343.994995 512.428284,339.296326 517.392029,330.933044 
	C518.640381,338.129425 510.681183,344.080170 517.127258,350.236542 
	C518.606689,350.075165 520.039490,349.608917 521.721558,349.661926 
	C525.351624,349.776337 529.612793,350.423065 532.572266,347.924133 
	C536.360291,344.725616 540.589966,345.003204 544.783875,344.921326 
	C546.109192,344.012909 544.643494,342.035858 546.070007,341.550232 
	C552.574402,342.741180 556.339844,338.643097 560.295044,335.072845 
	C561.723572,333.783325 562.472229,331.561615 565.000000,332.000122 
M463.304901,263.242737 
	C461.374756,259.883789 457.812347,257.449707 454.688660,257.953461 
	C451.609985,258.450012 448.219147,258.949585 445.128357,260.127472 
	C443.716553,260.665497 442.210419,260.842072 441.653168,263.747986 
	C457.673309,269.662720 471.464325,280.508026 487.881561,287.036407 
	C486.757874,280.524475 476.861786,271.985870 470.113159,271.420044 
	C471.512787,268.986267 472.907776,266.599731 468.143158,266.672333 
	C466.376068,266.699249 464.841949,265.270050 463.304901,263.242737 
M392.604340,296.826752 
	C390.965820,294.085785 388.804962,291.825989 386.210510,289.811798 
	C384.286621,290.357117 381.388916,294.210358 380.624207,289.816589 
	C379.841858,285.321594 376.594055,284.228668 373.903564,282.010406 
	C370.825470,279.472534 366.612152,280.497345 363.419434,278.274506 
	C358.634460,274.943115 355.703217,275.377228 350.940491,279.990234 
	C357.689423,284.656464 366.858246,283.709015 372.820068,289.364227 
	C378.711761,294.952942 385.709442,298.990814 391.599548,304.397858 
	C394.702698,301.350403 394.702698,301.350403 392.604340,296.826752 
M573.977112,300.839050 
	C574.725586,299.634613 575.190491,298.058868 574.454956,297.033752 
	C571.531067,292.958710 572.046997,287.752197 569.177185,283.433838 
	C565.494812,277.892761 555.263733,270.601562 548.887634,270.812256 
	C546.815979,270.880707 545.680969,271.989166 546.731262,273.498169 
	C549.050354,276.830139 550.170105,281.017883 554.178955,283.218109 
	C561.476196,287.223083 567.081604,293.054016 571.085999,300.363983 
	C571.725769,301.531891 572.181396,302.509308 573.977112,300.839050 
z"/>
<path fill="#000000" opacity="1.000000" stroke="none" 
	d="
M420.893188,123.399963 
	C423.203369,136.883392 425.393219,149.949509 427.583069,163.015625 
	C427.842743,163.004425 428.102417,162.993225 428.362091,162.982025 
	C429.127228,152.520294 429.894470,142.058716 430.656494,131.596756 
	C430.994690,126.953491 431.508881,122.312881 431.594391,117.664642 
	C431.660126,114.090439 433.720978,113.534691 436.498077,113.697289 
	C439.273956,113.859825 442.590149,112.555176 443.364746,117.248718 
	C445.527283,130.352432 447.973999,143.409332 450.324310,156.481888 
	C450.585449,157.934387 450.948395,159.368591 451.440094,161.614975 
	C453.497772,154.076874 452.538086,147.092087 453.458130,140.269608 
	C454.388062,133.374161 454.593903,126.339684 454.554108,119.369324 
	C454.527405,114.693314 455.741394,112.584862 460.856812,112.284409 
	C468.535004,111.833443 468.793854,111.448486 468.281250,118.774933 
	C466.889313,138.669205 465.249725,158.546295 463.677582,178.427765 
	C462.996338,187.043060 462.031006,195.641891 461.596466,204.268433 
	C461.340179,209.357010 457.880951,208.786011 454.633026,209.188461 
	C450.942535,209.645752 449.274933,208.219788 448.561859,204.480850 
	C446.103577,191.591141 443.330292,178.761444 440.662567,165.911865 
	C440.572113,165.476028 440.327850,165.072113 439.594513,163.292572 
	C438.431671,176.290955 437.384888,187.935776 436.355957,199.582184 
	C436.253571,200.741470 436.307739,201.914474 436.208435,203.074173 
	C435.628082,209.851868 431.887238,212.282028 425.475616,210.231171 
	C423.666351,209.652451 423.272766,208.225296 423.006836,206.827438 
	C417.298340,176.819489 411.646088,146.800812 405.993347,116.782272 
	C405.967102,116.642914 406.089386,116.475586 406.142334,116.321320 
	C415.757538,112.422577 419.343781,114.055412 420.893188,123.399963 
z"/>
<path fill="#000000" opacity="1.000000" stroke="none" 
	d="
M224.213287,283.085022 
	C219.354324,288.758240 213.063660,292.020660 207.490845,296.203064 
	C204.746521,298.262695 203.631912,295.754852 202.443359,294.090912 
	C195.574356,284.474548 188.771515,274.810944 181.945724,265.163696 
	C172.140427,251.305420 162.427704,237.379974 152.459778,223.639648 
	C150.144012,220.447495 150.200516,218.568756 153.630096,216.511459 
	C157.477661,214.203461 160.995209,211.343613 164.851013,209.051300 
	C174.563904,203.276855 183.747787,204.554245 191.560974,212.608917 
	C198.448654,219.709518 203.009811,227.739838 200.919601,238.439835 
	C212.603668,240.526932 219.665634,247.993713 224.833374,257.540222 
	C229.378204,265.936066 230.826981,274.474548 224.213287,283.085022 
M208.723343,276.190430 
	C212.840225,274.814056 213.201904,271.589935 212.236221,268.175049 
	C210.553970,262.226257 206.832611,257.583557 202.001266,253.818069 
	C200.660583,252.773163 199.105682,252.247131 197.357513,252.318329 
	C193.535568,252.474030 192.565811,254.144760 194.779800,257.316956 
	C199.148438,263.576355 203.689667,269.715302 208.723343,276.190430 
M174.775101,221.225876 
	C172.234161,221.579849 170.304092,222.522339 172.232712,225.378357 
	C176.092560,231.094330 180.150482,236.676544 184.110931,242.291733 
	C187.382004,240.741806 188.577423,238.458145 188.534225,235.642197 
	C188.441406,229.590042 181.806229,222.315445 174.775101,221.225876 
z"/>
<path fill="#000000" opacity="1.000000" stroke="none" 
	d="
M232.677551,630.999878 
	C232.674530,614.513794 232.850418,598.524536 232.562546,582.543640 
	C232.474792,577.671997 234.246872,575.916443 238.826050,576.153503 
	C245.610138,576.504761 252.464691,576.036743 259.012634,578.561157 
	C263.802338,580.407776 267.430389,583.496216 269.037415,588.337952 
	C272.953247,600.135681 273.458038,611.550720 263.770477,621.483704 
	C273.220703,631.229736 273.795929,642.966736 271.301605,655.113525 
	C269.008789,666.278992 261.330658,672.199768 250.010727,672.348389 
	C245.848404,672.403076 241.677048,672.201965 237.524078,672.406738 
	C233.842850,672.588318 232.565765,671.132996 232.614609,667.467773 
	C232.774399,655.480347 232.676819,643.489502 232.677551,630.999878 
M247.429977,634.775024 
	C248.198059,642.253845 246.255585,649.954102 248.915054,657.586426 
	C250.099655,657.292725 250.953384,657.249084 251.635803,656.884705 
	C256.143066,654.477478 256.740723,650.135620 256.729187,645.730713 
	C256.715118,640.344360 257.895264,634.392944 252.463593,630.649231 
	C248.674866,628.038025 247.443954,630.304993 247.429977,634.775024 
M254.412674,612.752502 
	C257.828247,606.682495 257.981232,600.510132 254.657867,594.409973 
	C253.698120,592.648376 251.795761,591.237000 249.708527,591.793640 
	C247.332352,592.427307 247.305923,594.791382 247.608688,596.773071 
	C248.243225,600.925903 247.366302,605.023193 247.418457,609.146484 
	C247.445190,611.259583 247.170593,613.470032 248.974396,615.160645 
	C250.995682,615.466797 252.472382,614.440552 254.412674,612.752502 
z"/>
<path fill="#000000" opacity="1.000000" stroke="none" 
	d="
M545.104614,162.306458 
	C548.105774,148.269943 550.981689,134.636078 553.866211,120.961784 
	C558.305481,120.008171 562.050842,121.604507 565.872925,122.457588 
	C568.645569,123.076424 568.335632,125.085793 567.896667,127.173035 
	C565.880493,136.760971 564.012451,146.382065 561.840027,155.934097 
	C561.045044,159.429550 561.330566,161.568497 565.355469,162.510178 
	C569.753235,163.539093 570.875427,161.214645 571.588318,157.697998 
	C573.468811,148.421509 575.704529,139.210434 577.326477,129.891113 
	C578.054260,125.709290 580.074890,125.121429 583.535645,125.955612 
	C594.184875,128.522446 593.367126,126.774811 591.191162,137.276260 
	C585.732483,163.619766 579.915894,189.889877 574.594543,216.260391 
	C573.599365,221.192078 571.538574,222.398529 567.200928,220.995438 
	C564.555603,220.139725 561.550232,220.340988 558.866516,218.043411 
	C561.194092,206.737564 563.405823,195.195541 566.025696,183.746918 
	C566.829285,180.235367 566.275696,178.345963 562.679565,177.541275 
	C559.131592,176.747345 557.079651,177.699738 556.333374,181.592468 
	C554.426453,191.539185 552.111938,201.408386 550.250183,211.362778 
	C549.437744,215.706467 547.810974,217.066910 543.214111,215.959381 
	C532.223694,213.311523 534.381470,214.147202 536.202209,204.644272 
	C538.889099,190.620132 542.031128,176.683167 545.104614,162.306458 
z"/>
<path fill="#000000" opacity="1.000000" stroke="none" 
	d="
M354.519775,222.356384 
	C349.373444,200.884872 344.514587,179.688843 339.675598,158.488281 
	C337.827850,150.392914 336.108368,142.267166 334.161835,134.195938 
	C333.389954,130.995392 333.911591,129.225571 337.540955,128.571350 
	C343.742126,127.453537 349.796875,125.487404 356.203583,125.674789 
	C363.399872,125.885269 368.962769,128.708710 372.474396,135.276611 
	C378.451202,146.455215 380.447876,158.824615 383.201813,170.941284 
	C385.404541,180.632751 387.640259,190.349487 387.390503,200.438873 
	C387.208893,207.775940 384.251526,213.358643 377.707550,216.632126 
	C370.537292,220.218887 362.844025,222.149002 354.519775,222.356384 
M358.200745,172.561005 
	C360.295563,182.116318 362.359192,191.678696 364.520020,201.219055 
	C364.831757,202.595322 365.042603,204.376404 366.936646,204.609222 
	C368.811432,204.839676 370.085571,203.635513 370.999817,202.200439 
	C372.100952,200.472046 372.484070,198.474747 372.207458,196.455505 
	C369.929230,179.824997 366.083099,163.531281 361.433014,147.424393 
	C360.752258,145.066391 359.657043,142.728806 357.327057,141.362946 
	C355.811768,140.474686 354.236267,140.031998 352.632446,141.067505 
	C350.983795,142.131912 351.622162,143.583801 351.967285,145.075714 
	C354.021851,153.956985 356.003510,162.855118 358.200745,172.561005 
z"/>
<path fill="#000000" opacity="1.000000" stroke="none" 
	d="
M439.632050,660.203491 
	C437.333099,650.808899 437.080841,641.344849 433.781616,632.635925 
	C433.249084,632.676697 432.716553,632.717468 432.184021,632.758179 
	C431.922729,637.113586 431.514801,641.466187 431.433319,645.824951 
	C431.299500,652.988159 431.243774,660.158630 431.423004,667.319336 
	C431.510925,670.831726 430.590485,672.486633 426.702057,672.418396 
	C414.773407,672.208984 416.748535,673.076599 416.711029,662.630554 
	C416.615356,635.968567 416.791107,609.304993 416.559784,582.644592 
	C416.518036,577.832275 418.105621,575.898499 422.733124,576.143555 
	C427.717743,576.407471 432.775940,576.187256 437.675018,576.971558 
	C447.844421,578.599487 454.105591,585.912964 455.111084,597.791321 
	C455.913574,607.272217 456.032837,616.865295 449.249603,624.850830 
	C447.662720,626.718994 448.312531,628.949890 448.721497,631.073792 
	C451.046600,643.148499 453.242310,655.250610 455.783997,667.279602 
	C456.592468,671.105774 455.705597,672.449158 451.777710,672.394958 
	C439.345612,672.223511 442.309845,673.499695 439.632050,660.203491 
M431.419495,614.010376 
	C432.308624,617.962646 433.919922,618.693726 436.904694,616.499084 
	C442.101959,612.677612 442.398438,597.299866 437.315125,593.209595 
	C436.169800,592.287964 434.867371,591.232605 433.277039,591.944946 
	C431.700012,592.651367 431.528778,594.261108 431.513641,595.775452 
	C431.455750,601.564880 431.443787,607.354797 431.419495,614.010376 
z"/>
<path fill="#000000" opacity="1.000000" stroke="none" 
	d="
M647.211548,198.263489 
	C651.515320,189.024048 655.368164,179.975327 659.845276,171.246857 
	C666.167908,158.920441 676.674255,155.198898 687.438049,160.955750 
	C696.022583,165.547043 699.406006,174.957184 695.058350,185.594055 
	C689.775269,198.519409 683.600281,211.082825 677.714111,223.757767 
	C675.053284,229.487335 672.510986,235.317810 669.292786,240.732727 
	C663.278381,250.852478 653.971252,253.744339 644.236023,249.058456 
	C634.949097,244.588333 631.263794,235.278549 635.392639,224.546631 
	C638.791870,215.710999 643.121765,207.233414 647.211548,198.263489 
M656.260986,214.645798 
	C654.233521,219.028320 652.125122,223.375854 650.209167,227.806580 
	C649.080750,230.416306 647.750366,233.718399 650.987244,235.352020 
	C654.670776,237.211105 656.118286,233.649948 657.688843,231.132935 
	C657.864136,230.851944 657.987000,230.537491 658.126770,230.235107 
	C665.391602,214.515823 672.686096,198.810059 679.893555,183.064468 
	C681.298828,179.994370 683.955750,175.995911 679.423462,174.005310 
	C675.345398,172.214203 673.907837,176.672668 672.547913,179.525665 
	C667.104004,190.946976 661.854736,202.461044 656.260986,214.645798 
z"/>
<path fill="#000000" opacity="1.000000" stroke="none" 
	d="
M291.320496,242.780884 
	C292.428009,245.050812 291.653320,246.086166 289.898254,247.096085 
	C280.146301,252.707764 279.451538,252.648026 274.971222,242.406601 
	C264.096344,217.547974 253.441986,192.592804 242.553848,167.740036 
	C241.147522,164.529999 241.659164,163.116745 244.913376,161.740814 
	C256.511505,156.836975 253.859024,156.889664 258.451813,167.080460 
	C260.803528,172.298615 263.167389,177.511276 266.358185,182.426575 
	C266.358185,177.525864 266.396912,172.624664 266.334808,167.724731 
	C266.315918,166.234695 265.951080,164.752304 265.860077,163.259384 
	C265.168427,151.917770 266.145721,150.693878 277.768494,148.242859 
	C279.581451,149.515198 279.139252,151.491180 279.181000,153.248871 
	C279.295624,158.077713 279.836365,162.979279 279.224304,167.725159 
	C277.978333,177.386581 281.567352,184.888977 287.406647,192.297684 
	C297.193604,204.715027 306.229218,217.724640 315.575012,230.489410 
	C316.443207,231.675278 317.665222,232.704391 317.421783,234.588684 
	C314.947815,236.762070 311.544159,237.352875 308.671265,238.963821 
	C306.111816,240.399033 304.540497,239.499695 302.894501,237.243393 
	C296.318970,228.229843 289.562988,219.347885 282.862915,210.425369 
	C282.075836,209.377197 281.221802,208.379318 279.971008,206.827286 
	C278.773499,211.109985 279.115204,214.613617 280.670013,218.138199 
	C284.230896,226.210159 287.702118,234.321701 291.320496,242.780884 
z"/>
<path fill="#000000" opacity="1.000000" stroke="none" 
	d="
M647.521118,664.228027 
	C642.149109,672.244141 634.887390,675.130188 626.186768,672.970764 
	C619.068970,671.204041 613.580139,664.189209 612.694397,655.497192 
	C611.475342,643.534485 612.238464,631.529358 612.138062,619.544800 
	C612.067139,611.060608 611.753540,602.569580 612.601807,594.083862 
	C613.836914,581.729309 620.728027,575.103943 632.273438,575.502747 
	C643.007996,575.873535 650.232300,583.654419 650.305237,595.354736 
	C650.425720,614.678345 650.307800,634.003296 650.369324,653.327454 
	C650.381409,657.120422 649.065857,660.491211 647.521118,664.228027 
M627.324158,634.499634 
	C627.321960,639.826599 627.298340,645.153687 627.325317,650.480469 
	C627.342224,653.811462 627.039307,658.264526 631.349426,658.298767 
	C636.100586,658.336670 635.617920,653.660156 635.627502,650.228333 
	C635.675232,633.082275 635.659790,615.936035 635.632446,598.789856 
	C635.629761,597.137573 635.566467,595.447571 635.217102,593.843567 
	C634.812927,591.988159 633.892029,590.380066 631.602112,590.347473 
	C629.087769,590.311646 628.079285,592.052368 627.606384,594.075745 
	C627.271667,595.507812 627.340332,597.048889 627.337891,598.541504 
	C627.318787,610.194275 627.326172,621.846985 627.324158,634.499634 
z"/>
<path fill="#000000" opacity="1.000000" stroke="none" 
	d="
M344.353119,605.130981 
	C347.283661,597.810791 350.026642,590.667847 352.730408,583.510010 
	C355.598877,575.915955 355.582794,575.902466 363.830261,576.109680 
	C365.472260,576.150879 367.174255,575.962463 368.632446,577.049744 
	C369.599518,578.401062 368.748779,579.597351 368.275848,580.789429 
	C366.557434,585.120667 365.278687,589.714844 362.960602,593.702087 
	C357.194458,603.620300 357.508087,613.530823 360.520935,624.283875 
	C364.414764,638.181152 367.139648,652.407532 370.288818,666.509827 
	C370.639832,668.081726 371.491577,669.676086 370.649872,671.676941 
	C366.974731,673.062134 362.981079,672.340271 359.075195,672.195251 
	C356.076080,672.083801 356.302917,669.208252 355.831909,667.287354 
	C353.378479,657.281067 351.096649,647.232788 348.735138,637.203796 
	C348.356415,635.595398 347.876831,634.010742 347.280090,631.811340 
	C344.446198,634.975708 343.324371,638.186829 343.335175,641.906189 
	C343.359863,650.399536 343.226685,658.895386 343.397003,667.385376 
	C343.467987,670.923340 342.451935,672.494019 338.623932,672.427063 
	C326.546997,672.215820 328.735107,673.047119 328.697083,662.644653 
	C328.599731,635.998901 328.628906,609.352478 328.716003,582.706665 
	C328.722778,580.634277 327.415985,577.529968 330.690979,576.794373 
	C334.548553,575.927979 338.642914,575.141174 342.414673,577.049011 
	C343.866394,577.783264 343.312622,579.768616 343.322510,581.219604 
	C343.366669,587.714233 343.290283,594.210144 343.385162,600.703735 
	C343.407532,602.236206 342.710083,603.973572 344.353119,605.130981 
z"/>
<path fill="#000000" opacity="1.000000" stroke="none" 
	d="
M306.587524,658.469238 
	C305.965332,651.412048 300.921509,653.498779 297.111908,653.253235 
	C292.659729,652.966187 292.690643,656.317932 292.330109,659.306091 
	C292.210510,660.297363 292.197968,661.303711 292.042755,662.288330 
	C290.321472,673.207764 288.546692,674.307922 276.661926,671.528992 
	C276.353424,665.109863 278.058990,658.812988 278.975250,652.481323 
	C282.375641,628.983887 286.193359,605.546387 289.523529,582.039490 
	C290.157532,577.564148 291.965912,576.139099 296.201355,576.039429 
	C308.735962,575.744812 308.534119,575.665771 310.310089,587.810059 
	C314.106384,613.769287 318.142975,639.693420 322.035309,665.638733 
	C322.325806,667.575256 322.251007,669.566467 322.353729,671.691467 
	C318.289948,672.899353 314.481171,672.284912 310.720398,672.220215 
	C308.606079,672.183899 308.029755,670.547241 307.807617,668.793030 
	C307.390137,665.495605 307.019836,662.192200 306.587524,658.469238 
M301.516632,620.002991 
	C300.527191,617.364990 301.279419,614.242065 298.912964,610.519653 
	C297.903168,618.351013 296.966949,624.875854 296.245148,631.424377 
	C295.576324,637.491882 296.498413,638.084412 303.273651,635.971863 
	C302.725311,631.000732 302.166382,625.933533 301.516632,620.002991 
z"/>
<path fill="#000000" opacity="1.000000" stroke="none" 
	d="
M211.451752,208.424011 
	C208.827469,201.531342 206.419876,194.969559 203.808990,188.489685 
	C202.704117,185.747574 202.856735,183.947357 205.777512,182.425873 
	C220.858322,174.569992 215.598373,173.091690 226.101562,186.253342 
	C242.401703,206.679245 258.411469,227.336929 274.528748,247.908539 
	C275.432312,249.061813 276.194794,250.325638 277.123383,251.684998 
	C274.226227,254.982651 270.372314,256.252472 266.974579,258.188232 
	C264.997650,259.314545 263.926239,257.795349 262.891693,256.452271 
	C260.453766,253.287277 257.919281,250.189514 255.626068,246.922592 
	C253.936386,244.515427 252.173691,244.139633 249.773575,245.788254 
	C248.407593,246.726547 246.945572,247.568466 245.431305,248.237717 
	C242.853409,249.377060 242.628708,251.137177 243.613831,253.494446 
	C245.217148,257.330872 246.629913,261.248810 248.300797,265.054352 
	C249.318192,267.371552 248.603424,268.613251 246.580795,269.930328 
	C237.015564,276.158997 237.152588,276.174103 233.217438,265.702271 
	C226.078186,246.704117 218.804047,227.756638 211.451752,208.424011 
M229.829773,212.725311 
	C228.667023,211.232895 227.504272,209.740494 226.341522,208.248077 
	C229.448242,217.142960 232.067169,226.135468 236.508331,234.316803 
	C243.583420,231.855515 243.845444,231.134094 239.886444,225.895828 
	C236.695038,221.673203 233.473724,217.473175 229.829773,212.725311 
z"/>
<path fill="#000000" opacity="1.000000" stroke="none" 
	d="
M717.885986,212.913681 
	C723.350037,205.959122 728.752686,199.399551 733.797546,192.575516 
	C736.232178,189.282272 738.537109,188.965988 741.678467,191.265533 
	C743.924255,192.909515 746.753113,193.724701 748.936951,196.186432 
	C746.343567,201.157547 742.375793,204.986618 738.977661,209.186661 
	C723.167908,228.727921 707.157837,248.107452 691.405945,267.694855 
	C688.884705,270.829865 687.062073,271.234192 683.666443,269.005493 
	C675.411621,263.587555 675.347534,263.776703 679.063843,254.546860 
	C689.070251,229.695053 699.039490,204.828308 709.006653,179.960739 
	C711.558899,173.593094 711.530396,173.581635 717.249146,176.848251 
	C724.389587,180.926987 724.349548,180.910049 721.117188,188.543381 
	C715.539185,201.716003 710.016479,214.912018 705.276978,228.666977 
	C709.410522,223.511292 713.544006,218.355606 717.885986,212.913681 
z"/>
<path fill="#000000" opacity="1.000000" stroke="none" 
	d="
M663.351562,576.126404 
	C667.630127,576.257935 671.452942,576.389893 675.273376,576.573059 
	C690.790649,577.316772 697.245239,587.556519 698.264038,601.063477 
	C698.663513,606.359741 698.652405,611.717896 697.079468,616.919067 
	C694.463684,625.568298 689.142456,631.710510 680.069275,633.297852 
	C674.866577,634.207947 673.843689,636.689209 674.030273,641.395691 
	C674.366638,649.878235 673.974182,658.387329 674.179688,666.878235 
	C674.277100,670.902649 673.015320,672.546753 668.777100,672.418457 
	C657.628906,672.081116 658.822266,673.470825 658.798767,662.512878 
	C658.741638,635.858887 658.772217,609.204773 658.776489,582.550659 
	C658.776978,579.552429 658.316895,576.220337 663.351562,576.126404 
M678.680847,618.354614 
	C685.949158,612.465332 683.714905,604.742737 682.498413,597.375793 
	C681.832336,593.341980 678.686096,591.975098 674.213196,591.969238 
	C674.213196,600.109985 674.195129,608.017334 674.223694,615.924438 
	C674.232849,618.452087 675.835632,618.902832 678.680847,618.354614 
z"/>
<path fill="#000000" opacity="1.000000" stroke="none" 
	d="
M550.292480,654.987427 
	C551.520508,648.323853 549.637024,642.802246 546.181519,637.632507 
	C541.926086,631.266113 537.522339,624.981995 533.606689,618.409729 
	C528.585510,609.981873 525.116577,601.139526 527.568604,590.907593 
	C530.321594,579.420349 539.430115,573.429504 551.145508,575.802246 
	C559.753174,577.545593 566.929321,589.329712 565.325256,598.859497 
	C565.016907,600.691956 564.098267,601.506470 562.478577,601.739868 
	C560.671509,602.000427 558.841492,602.096375 557.026611,602.308167 
	C553.007141,602.777344 550.371521,602.146179 550.444824,596.971558 
	C550.488770,593.874207 549.719788,589.315002 545.371582,589.794006 
	C541.241333,590.248962 541.477112,594.760437 541.494995,597.946472 
	C541.515686,601.644592 543.250488,604.986694 545.159729,608.158630 
	C550.225403,616.574463 556.236145,624.383850 560.932495,633.043152 
	C565.246826,640.998047 566.623840,649.353577 564.541626,658.121582 
	C561.846008,669.472229 555.329407,673.923889 542.917114,673.302734 
	C533.639526,672.838562 527.293884,666.559814 525.719849,656.272461 
	C525.569031,655.286865 525.520081,654.285278 525.361572,653.301147 
	C524.090576,645.412537 524.085938,645.413208 531.849487,644.151550 
	C538.348755,643.095337 538.457947,643.182495 539.662415,649.781982 
	C539.960693,651.416382 540.176575,653.093018 540.720337,654.648926 
	C541.495361,656.866333 542.499207,659.203735 545.224304,659.460632 
	C548.028442,659.724915 549.320007,657.709656 550.292480,654.987427 
z"/>
<path fill="#000000" opacity="1.000000" stroke="none" 
	d="
M460.986145,653.526001 
	C460.905945,650.486389 459.414642,646.792969 461.731415,645.585449 
	C465.127014,643.815613 469.353180,643.408508 473.367950,643.943359 
	C475.354889,644.208008 475.320435,646.000671 475.298676,647.476440 
	C475.253662,650.528259 475.932831,653.417908 477.050354,656.212219 
	C477.850647,658.213379 479.288574,659.622559 481.566772,659.495911 
	C483.607697,659.382385 484.783630,657.916809 485.542938,656.149231 
	C487.704346,651.117493 486.513550,646.368286 484.213196,641.754517 
	C481.006073,635.322021 476.530518,629.695618 472.619324,623.711914 
	C467.004303,615.121521 462.149689,606.333252 462.657013,595.549988 
	C463.301514,581.852295 472.338562,573.963989 485.688599,575.678345 
	C493.002014,576.617493 497.426971,581.062927 499.275085,587.877930 
	C502.929779,601.354736 503.631561,603.227600 487.244049,601.857971 
	C486.582764,598.851624 486.085297,595.750244 485.175629,592.774902 
	C484.644348,591.037170 483.447510,589.378174 481.222382,589.603821 
	C479.312927,589.797302 478.467926,591.334229 477.941833,592.974243 
	C476.345734,597.950134 477.600220,602.593506 480.165894,606.812805 
	C483.967407,613.064575 488.129730,619.095825 492.078400,625.259399 
	C497.328827,633.455078 501.904816,641.837708 501.320038,652.116943 
	C500.475067,666.969910 492.814880,674.130310 478.290710,673.295898 
	C468.642731,672.741638 463.729919,667.228760 460.986145,653.526001 
z"/>
<path fill="#000000" opacity="1.000000" stroke="none" 
	d="
M384.123901,576.377930 
	C391.858704,576.357239 399.181366,576.412659 406.503540,576.373840 
	C409.051056,576.360352 410.168182,577.551331 410.138123,580.005310 
	C410.136078,580.171753 410.141357,580.338745 410.153351,580.504761 
	C410.928986,591.245605 410.814575,591.370605 400.149384,591.427795 
	C392.180084,591.470520 392.115662,591.531372 392.123688,599.559204 
	C392.127686,603.556885 392.235352,607.556641 392.137665,611.551575 
	C392.065552,614.499695 393.226959,615.904114 396.263458,615.681458 
	C397.753906,615.572205 399.264648,615.757935 400.758423,615.673035 
	C403.656708,615.508545 405.163879,616.730225 405.100494,619.713196 
	C405.079254,620.711792 405.140320,621.712036 405.126984,622.710999 
	C405.020111,630.716858 406.285919,632.821289 396.462250,632.143860 
	C393.213440,631.919861 392.011993,633.463013 392.086487,636.613342 
	C392.212494,641.940796 392.215149,647.275024 392.100677,652.602783 
	C392.030304,655.878296 393.530762,657.136719 396.651764,656.914429 
	C397.811707,656.831848 398.982849,656.904541 400.148865,656.908630 
	C410.001068,656.943298 412.194244,659.829834 410.035706,669.614502 
	C409.573334,671.710388 408.394501,672.321106 406.533020,672.322083 
	C397.871368,672.326599 389.209473,672.291138 380.548187,672.349426 
	C376.412018,672.377319 376.784515,669.492249 376.784027,666.811584 
	C376.779297,640.825623 376.781769,614.839600 376.782898,588.853638 
	C376.782990,587.021301 376.785248,585.188965 376.791748,583.356628 
	C376.815674,576.591919 376.816498,576.591919 384.123901,576.377930 
z"/>
<path fill="#000000" opacity="1.000000" stroke="none" 
	d="
M709.919922,268.962128 
	C725.028137,247.996643 740.010132,227.379395 754.774841,206.607666 
	C757.222046,203.164795 759.023499,202.239777 762.632812,205.091736 
	C768.508057,209.734100 774.677185,214.019302 780.868896,218.240189 
	C783.962769,220.349289 784.715454,222.208130 782.208923,225.445343 
	C774.705994,235.135300 777.402222,234.699234 767.820740,227.916611 
	C765.817932,226.498856 764.009460,224.689407 761.074463,223.924500 
	C757.246643,229.225510 753.412842,234.631683 749.469299,239.956528 
	C747.381042,242.776352 749.220825,244.122925 751.266602,245.513565 
	C758.598145,250.497253 758.406860,249.611389 753.366028,256.687927 
	C748.558777,263.436340 748.558105,263.419281 741.489014,258.632904 
	C740.413696,257.904877 739.231018,257.335510 737.714539,256.475159 
	C733.299927,262.537292 729.017456,268.440948 724.706970,274.323975 
	C723.320496,276.216248 724.306702,277.315125 725.853577,278.388733 
	C729.000549,280.572845 732.073425,282.863983 735.231018,285.032196 
	C737.150635,286.350311 737.427307,287.805725 735.971313,289.609497 
	C735.762268,289.868439 735.585571,290.153168 735.382568,290.417267 
	C727.285828,300.947784 730.702087,300.578857 719.984802,293.135742 
	C715.060608,289.715942 710.357239,285.973083 705.375854,282.642914 
	C702.560242,280.760620 702.512085,278.989746 704.435608,276.536804 
	C706.284546,274.179077 707.965942,271.690033 709.919922,268.962128 
z"/>
<path fill="#000000" opacity="1.000000" stroke="none" 
	d="
M310.843811,205.995636 
	C304.069458,185.047104 297.408142,164.480133 290.507111,143.172958 
	C298.293152,140.579926 305.617126,138.033401 313.009888,135.705292 
	C322.733093,132.643250 320.989288,131.479111 324.664032,141.839844 
	C326.191345,146.145996 325.481171,148.263763 320.879791,149.298691 
	C317.198425,150.126694 313.671143,151.639832 309.490021,153.045715 
	C311.906281,160.663635 314.195923,167.882385 316.425537,174.911972 
	C319.018799,175.540405 320.816071,174.522339 322.686432,173.968750 
	C323.803192,173.638184 324.884399,173.186050 326.003662,172.865540 
	C329.810577,171.775406 330.433105,174.912201 330.636566,177.130081 
	C330.973206,180.799759 336.181213,184.302399 331.271484,188.186844 
	C330.654907,188.674652 329.723328,188.767303 328.934631,189.034012 
	C321.882233,191.418747 321.887573,191.416382 324.209290,198.638535 
	C325.584351,202.915894 326.995422,207.182938 328.282410,211.486893 
	C329.135132,214.338547 330.737946,215.235886 333.534485,214.057632 
	C334.910309,213.477966 336.347809,212.972473 337.806732,212.677277 
	C340.794037,212.072815 344.185822,208.798203 346.614777,211.269043 
	C349.302795,214.003418 349.727905,218.500000 350.572510,222.399292 
	C351.086761,224.773285 349.012299,225.002716 347.494476,225.508713 
	C339.600800,228.140244 331.657562,230.628647 323.809143,233.387482 
	C320.776489,234.453522 319.613708,233.300552 318.771881,230.608841 
	C316.238678,222.509155 313.571686,214.451340 310.843811,205.995636 
z"/>
<path fill="#000000" opacity="1.000000" stroke="none" 
	d="
M544.138550,120.225090 
	C544.178528,121.496880 544.219727,122.337158 544.116699,123.159393 
	C542.945557,132.514175 542.939148,132.542419 533.662476,132.362366 
	C531.162903,132.313858 529.600830,132.909424 529.289368,135.823303 
	C527.363464,153.843414 525.313110,171.850235 523.303772,189.861420 
	C522.603210,196.141296 521.904114,202.421356 521.196106,208.700394 
	C521.140381,209.194733 521.176270,209.803284 520.904907,210.153763 
	C517.444885,214.622406 513.237183,210.382248 509.383423,211.002640 
	C507.155914,211.361252 506.015717,209.625610 506.314819,207.020660 
	C508.381683,189.019272 510.319305,171.003082 512.324707,152.994568 
	C513.023621,146.718216 513.767944,140.446518 514.547729,134.179688 
	C514.962341,130.848038 512.678406,130.451645 510.280212,129.921631 
	C501.982117,128.087692 502.088959,128.062439 502.659882,119.499397 
	C502.950134,115.146240 504.286835,113.449051 509.201019,114.224617 
	C519.208801,115.804100 529.344299,116.574928 539.428162,117.670525 
	C541.215698,117.864746 543.203308,117.588104 544.138550,120.225090 
z"/>
<path fill="#000000" opacity="1.000000" stroke="none" 
	d="
M580.654663,621.999878 
	C580.654236,613.167969 580.525024,604.833130 580.715210,596.505554 
	C580.794678,593.027771 579.284363,591.817444 576.088989,591.477417 
	C566.205139,590.425598 566.227417,590.294067 567.044312,580.304993 
	C567.259766,577.670166 568.195740,576.250671 570.907593,576.244141 
	C582.236511,576.216797 593.565430,576.177368 604.894348,576.167664 
	C607.255493,576.165649 608.605896,577.138428 608.514160,579.786682 
	C608.388184,583.421570 608.482605,587.064148 608.482605,590.375793 
	C605.906067,592.040588 603.646851,591.539490 601.587830,591.350403 
	C596.877869,590.917786 595.195129,592.543518 595.246338,597.487732 
	C595.481323,620.148132 595.389954,642.812439 595.283386,665.474792 
	C595.272766,667.725525 596.690674,671.196777 593.474487,671.959167 
	C589.670471,672.860901 585.465576,673.119934 581.693176,671.601257 
	C580.045044,670.937744 580.688110,668.600952 580.683777,666.992371 
	C580.643677,652.161682 580.657043,637.330750 580.654663,621.999878 
z"/>
<path fill="#000000" opacity="1.000000" stroke="none" 
	d="
M624.653992,239.314407 
	C616.452454,236.437317 608.647522,233.559372 600.769287,230.898483 
	C597.157227,229.678528 596.270325,227.825012 597.604431,224.160583 
	C607.447021,197.124313 617.183655,170.049133 626.835999,142.944290 
	C628.053528,139.525238 629.549866,138.720306 633.063049,140.057983 
	C642.618835,143.696442 642.707031,143.554062 639.197632,153.342148 
	C631.731750,174.165512 624.308838,195.004974 616.678345,215.768021 
	C615.206238,219.773773 615.603760,222.068893 620.143433,222.874878 
	C621.591919,223.132034 622.992554,223.806015 624.341248,224.445023 
	C626.788635,225.604507 630.921509,225.260513 631.271118,228.298218 
	C631.698303,232.009567 629.427979,235.612289 627.755066,239.040436 
	C627.245911,240.083908 625.994690,239.667770 624.653992,239.314407 
z"/>
<path fill="#000000" opacity="1.000000" stroke="none" 
	d="
M477.655212,167.883667 
	C478.333954,150.624756 479.050476,133.852432 479.650879,117.075943 
	C479.753784,114.200035 480.773315,112.946144 483.774414,112.798630 
	C493.835907,112.304085 494.630005,112.750298 494.301605,122.650818 
	C493.397827,149.897964 492.243652,177.136749 491.291748,204.382446 
	C491.169342,207.885803 490.034241,209.765961 486.283203,209.327271 
	C485.626312,209.250458 484.953400,209.312042 484.287872,209.308243 
	C475.430054,209.257507 475.613953,209.132599 476.266693,200.249680 
	C477.045837,189.646011 477.218445,178.997772 477.655212,167.883667 
z"/>
<path fill="#000000" opacity="1.000000" stroke="none" 
	d="
M413.122131,473.787415 
	C425.879425,474.184265 437.829407,477.223541 449.972534,478.428406 
	C462.652985,479.686523 475.325897,481.409088 488.276611,479.792938 
	C497.473328,478.645294 506.786377,477.889832 515.897339,476.302826 
	C524.148987,474.865570 532.448669,473.230713 540.670593,471.693481 
	C557.686890,468.511963 575.025879,465.116150 592.324768,470.956482 
	C594.482788,471.685028 595.893311,472.793243 595.841125,475.142792 
	C595.784302,477.699402 593.923584,478.637207 591.800964,478.682495 
	C584.470154,478.838898 577.290405,479.895782 570.046326,481.051758 
	C559.092773,482.799622 548.467651,485.522308 537.794312,488.458282 
	C525.328308,491.887421 513.165039,496.031494 500.086853,497.975983 
	C482.203827,500.634857 464.871338,498.475311 447.420288,496.913239 
	C441.452393,496.379028 435.153076,495.083527 429.074158,493.205048 
	C423.062531,491.347351 416.489288,489.922241 410.129089,489.568970 
	C401.952545,489.114868 393.926025,487.626312 386.043488,486.107727 
	C368.115845,482.653961 350.114410,483.840851 332.279358,484.738770 
	C323.624207,485.174561 314.458832,486.047913 305.803253,488.747284 
	C302.580902,489.752197 298.871185,489.243622 295.381378,489.320160 
	C293.731476,489.356323 291.790192,489.431915 291.286987,487.337616 
	C290.770050,485.186310 292.292969,483.710144 293.960999,483.031769 
	C296.385071,482.045959 299.032501,481.610382 301.583466,480.935577 
	C307.480133,479.375641 313.330200,477.752045 319.338165,476.503326 
	C337.887146,472.647980 356.889374,475.095764 375.456177,471.658600 
	C384.819702,469.925171 394.356873,470.563660 403.727417,472.850403 
	C406.603851,473.552338 409.666534,473.491394 413.122131,473.787415 
z"/>
<path fill="#000000" opacity="1.000000" stroke="none" 
	d="
M416.145935,446.698181 
	C429.449432,447.654358 442.413818,447.838776 455.045349,446.297089 
	C464.308075,445.166595 473.767731,444.487396 482.952332,442.263885 
	C490.024689,440.551788 497.497375,440.900879 504.473846,438.586151 
	C511.526062,436.246307 519.003906,435.992706 526.121399,433.715210 
	C531.220825,432.083496 536.662415,431.174225 541.944153,430.116211 
	C545.823853,429.339020 549.502563,427.615234 553.530701,427.497559 
	C555.830505,427.430359 558.644104,426.515869 559.670471,429.260559 
	C560.680725,431.961700 558.024658,433.516418 556.223206,434.689240 
	C546.206238,441.210876 535.603455,446.545990 524.579407,451.281372 
	C512.744385,456.365112 500.106140,458.092163 487.961395,461.776154 
	C485.950317,462.386230 483.672821,462.218689 481.517242,462.233490 
	C474.020538,462.284973 466.503235,461.908539 459.030518,462.336487 
	C444.592133,463.163391 430.748444,459.392548 416.628723,457.748199 
	C409.529022,456.921417 402.598602,455.410706 395.769806,453.845062 
	C386.950623,451.823120 378.135681,449.633545 369.330933,447.466553 
	C351.987579,443.198059 334.764587,440.352722 318.312561,450.640808 
	C317.088623,451.406158 315.518921,451.724243 314.062439,451.983704 
	C312.456848,452.269775 311.082123,451.613251 310.339539,450.089417 
	C309.636780,448.647369 310.264954,447.447540 311.420929,446.598724 
	C318.215240,441.609894 325.062439,437.270416 333.753174,435.468689 
	C343.867188,433.371918 353.565063,436.042816 363.443604,435.773376 
	C368.059479,435.647491 372.271912,437.715240 376.377625,439.039856 
	C386.666931,442.359497 397.551239,442.604584 407.730194,446.078796 
	C410.320068,446.962769 413.011353,446.596710 416.145935,446.698181 
z"/>
<path fill="#000000" opacity="1.000000" stroke="none" 
	d="
M243.371735,477.549133 
	C246.572266,485.717773 249.617081,493.531342 252.980347,501.205353 
	C253.923843,503.358124 254.775681,505.091248 252.484360,507.462494 
	C245.751114,504.228333 242.337097,498.209625 239.015854,491.882202 
	C231.243805,477.075531 231.683929,461.143463 234.165207,445.644501 
	C236.250351,432.619843 244.233429,422.244415 255.333374,414.342133 
	C265.809692,406.883820 277.861053,404.421967 289.956421,403.321075 
	C297.814850,402.605865 305.965149,405.282654 313.746948,407.595490 
	C315.350159,408.071960 317.897064,408.489075 317.384796,410.887177 
	C316.870941,413.292755 314.354034,413.133911 312.386200,413.148041 
	C305.061890,413.200714 297.734711,413.282715 290.412628,413.143616 
	C268.711304,412.731415 254.819916,424.286407 246.108398,442.318176 
	C240.623184,453.671936 239.786133,465.177429 243.371735,477.549133 
z"/>
<path fill="#000000" opacity="1.000000" stroke="none" 
	d="
M652.342346,448.449158 
	C653.437500,452.942505 657.254272,455.090179 659.193420,458.601929 
	C665.115723,469.326904 659.922607,483.068787 646.186707,484.412994 
	C642.643860,484.759674 639.251587,484.640350 635.795288,484.187897 
	C634.260132,483.986969 632.557190,483.727539 632.463867,481.846497 
	C632.350403,479.562500 634.384338,479.286469 635.980286,479.182251 
	C640.286011,478.901001 644.570496,479.014252 648.641663,477.000458 
	C656.361633,473.181824 659.513000,469.036804 653.593018,462.306122 
	C651.635986,460.081085 650.565552,457.147156 647.786377,455.023529 
	C646.846497,457.331360 648.042725,458.847046 649.066406,460.439697 
	C651.305847,463.923828 651.414795,467.734619 650.143066,471.482300 
	C648.619446,475.972260 645.161560,476.795837 641.221985,473.628693 
	C643.322083,470.426910 648.275208,467.553253 643.166870,462.782593 
	C642.648071,463.194733 642.202271,463.669586 641.657898,463.959076 
	C639.877075,464.906189 638.626648,468.035553 636.300354,466.485413 
	C633.837830,464.844543 636.638184,463.009308 637.188843,461.307617 
	C637.824463,459.342987 637.214111,457.831848 636.253296,456.150360 
	C632.129639,448.934052 625.739258,442.121674 632.289429,432.644287 
	C627.691956,435.886169 625.215942,439.428528 626.758911,444.682404 
	C627.283752,446.469727 629.206177,448.568634 627.001282,450.126373 
	C624.641235,451.793762 623.209412,449.033081 621.453247,448.032745 
	C619.777039,448.671143 619.866699,451.832886 617.347107,450.904480 
	C615.483887,450.217926 615.270691,448.277405 615.101562,446.718048 
	C614.558899,441.713226 614.896179,436.772003 617.447815,432.248932 
	C618.728943,429.977905 619.701721,426.904419 623.289917,429.717133 
	C624.073120,430.331116 624.849854,429.522308 625.496033,429.029327 
	C628.846313,426.473267 631.932312,426.901367 634.546570,430.095551 
	C636.871216,428.420227 638.784729,426.795654 640.927307,425.572083 
	C642.758484,424.526337 645.123840,423.278412 646.670593,425.765167 
	C648.258545,428.317932 645.626465,429.173553 644.112244,430.267853 
	C636.735962,435.598633 635.582825,438.572693 638.146851,446.934418 
	C639.528015,444.567566 639.484009,442.273346 639.839966,440.098145 
	C640.580139,435.575348 643.387512,433.759888 647.812256,433.610626 
	C651.449524,433.487915 652.744324,434.785553 651.709106,438.373322 
	C650.767761,441.635986 650.514771,444.925507 652.342346,448.449158 
z"/>
<path fill="#000000" opacity="1.000000" stroke="none" 
	d="
M627.265259,496.380432 
	C640.671753,499.995483 653.661072,502.983276 666.517334,495.960846 
	C673.031189,492.402740 676.890625,487.269592 679.003235,479.843079 
	C683.201233,465.086060 676.705322,453.158051 670.380310,441.045349 
	C669.273499,438.925812 666.939087,437.478088 665.375671,435.554260 
	C664.473145,434.443542 663.462585,433.004333 664.688965,431.504211 
	C665.906250,430.015259 667.539490,429.922058 669.212158,430.726318 
	C678.057983,434.979675 683.320129,442.012268 686.456848,451.283020 
	C689.042847,458.925995 688.839905,466.621490 689.087891,474.423248 
	C689.576965,489.815369 679.234314,502.477051 663.723999,506.626495 
	C651.718689,509.838196 641.067627,506.494293 629.772156,504.141998 
	C623.207642,502.774902 616.860352,499.807770 609.898071,500.280884 
	C608.155518,500.399261 605.798584,500.702484 605.290100,498.382751 
	C604.731628,495.835266 607.363708,495.822418 608.857361,495.030365 
	C611.158020,493.810425 613.616882,493.368286 616.076904,494.440613 
	C619.536255,495.948456 623.287170,495.532898 627.265259,496.380432 
z"/>
<path fill="#000000" opacity="1.000000" stroke="none" 
	d="
M257.351746,452.553040 
	C252.257675,465.178741 255.542084,476.903046 259.590363,488.569061 
	C260.077423,489.972656 260.090271,491.262756 258.787262,492.125641 
	C257.417603,493.032745 256.271088,492.283203 255.251160,491.287659 
	C252.907639,489.000061 251.740585,485.878326 250.714661,483.038177 
	C246.330978,470.902557 244.381592,458.356903 250.374466,446.304657 
	C252.331284,442.369354 254.653854,438.118988 258.304199,435.026031 
	C264.730499,429.581024 270.586975,423.393280 278.743195,420.345093 
	C284.566589,418.168762 290.519714,418.480072 296.471252,419.366852 
	C298.100189,419.609589 299.678925,420.617493 299.520538,422.729034 
	C299.400055,424.335297 298.273224,424.951874 296.779938,425.070251 
	C280.577942,426.354492 269.144470,435.137451 260.409088,448.181732 
	C259.485992,449.560181 258.438110,450.855042 257.351746,452.553040 
z"/>
<path fill="#000000" opacity="1.000000" stroke="none" 
	d="
M667.311768,462.934631 
	C663.938232,457.805023 661.999451,452.245880 658.119690,447.864532 
	C657.293396,446.931458 657.087952,445.688873 658.236328,444.770416 
	C659.327209,443.898010 660.430664,444.443237 661.469238,445.041870 
	C665.913147,447.603394 669.561340,451.215515 671.642029,455.724609 
	C675.704407,464.528290 677.311035,473.660217 672.756714,483.005951 
	C668.929382,490.859894 661.861938,493.773987 654.081482,495.051575 
	C645.107361,496.525208 636.372192,494.095093 627.690552,492.036163 
	C626.327026,491.712830 624.934753,491.120239 625.175232,489.490723 
	C625.485168,487.390686 627.259155,487.115143 629.015625,487.260712 
	C636.645142,487.892914 644.314575,487.448059 651.924561,487.893951 
	C663.121155,488.549988 670.361511,476.201263 668.091248,467.731720 
	C667.707275,466.299347 667.656738,464.777618 667.311768,462.934631 
z"/>
<path fill="#000000" opacity="1.000000" stroke="none" 
	d="
M269.748779,454.974365 
	C266.993713,460.198456 268.792755,465.462219 268.236816,470.523682 
	C268.027252,472.431976 268.682373,475.088440 266.132568,475.521576 
	C263.219788,476.016449 262.794037,473.142273 262.361298,471.168091 
	C260.480286,462.586884 262.432251,447.087402 272.296814,440.672333 
	C276.174133,438.150848 279.947266,435.525055 284.136108,433.571991 
	C286.371521,432.529724 288.940643,432.114044 290.347961,434.612396 
	C291.631744,436.891388 289.797241,438.559479 288.163177,440.072357 
	C285.413513,442.618042 281.712067,443.404724 278.644073,445.371277 
	C274.943817,447.743103 271.635986,450.409180 269.748779,454.974365 
z"/>
<path fill="#000000" opacity="1.000000" stroke="none" 
	d="
M274.678955,455.715332 
	C277.027191,450.470825 281.065094,447.879364 286.023224,446.486267 
	C287.719727,446.009613 289.514740,446.083466 290.394501,447.843842 
	C291.452637,449.961212 289.597870,450.746460 288.189941,451.590393 
	C282.005493,455.297394 276.974243,459.847565 276.238068,467.621460 
	C276.137970,468.678589 275.618988,469.630798 274.503693,469.782623 
	C273.181061,469.962708 272.318665,469.124481 271.874420,467.940308 
	C270.177887,463.418030 271.238983,459.482758 274.678955,455.715332 
z"/>
<path fill="#000000" opacity="1.000000" stroke="none" 
	d="
M126.508591,472.687927 
	C118.490784,475.967316 110.984459,479.364380 102.302658,478.929718 
	C88.745079,478.250977 78.053986,469.088562 73.082603,456.707275 
	C72.441444,455.110443 72.300652,453.247955 74.214912,452.357391 
	C76.032135,451.511993 77.646072,452.594910 78.446426,454.063629 
	C81.329048,459.353455 85.996674,462.173126 91.330475,464.443390 
	C94.098763,465.621735 96.821022,466.122345 99.581680,465.413971 
	C110.949799,462.497070 121.596802,457.618225 132.494949,453.368958 
	C148.286224,447.211884 164.362762,445.740936 179.907898,454.743011 
	C180.607742,455.148254 181.194031,455.772919 181.768753,456.358643 
	C181.974945,456.568787 181.990616,456.965912 182.282074,457.851288 
	C178.465759,460.765564 173.709641,461.316681 169.117310,462.084717 
	C166.681564,462.492035 164.120789,462.378662 161.634720,462.217896 
	C152.218414,461.609131 143.762497,464.949219 135.357849,468.480469 
	C132.467407,469.694885 129.685822,471.168396 126.508591,472.687927 
z"/>
<path fill="#000000" opacity="1.000000" stroke="none" 
	d="
M768.371948,450.391510 
	C777.237976,447.213165 784.410706,441.691772 792.353149,437.629547 
	C805.733215,430.786285 819.788940,426.537964 834.865845,430.257629 
	C842.263672,432.082733 846.470764,438.422943 849.411499,444.995148 
	C852.587769,452.093964 853.084778,459.878448 852.129639,467.523804 
	C851.098083,475.781036 846.317444,480.146698 839.369873,481.158630 
	C837.797119,481.387695 835.812256,481.583191 834.919434,479.749573 
	C833.955017,477.769104 835.770081,476.700806 836.888794,475.604431 
	C839.130981,473.407074 841.225708,471.294128 842.816040,468.391571 
	C847.049438,460.665375 843.766174,454.341736 839.201660,448.808990 
	C833.852783,442.325317 826.313660,442.239227 818.590454,444.049683 
	C807.154602,446.730499 797.480713,453.365784 786.878418,457.907623 
	C777.206665,462.050934 766.947205,463.613190 756.700989,461.949799 
	C749.433899,460.770081 742.229370,458.102936 737.243713,451.814606 
	C736.285767,450.606232 735.007629,449.575836 736.041260,447.937897 
	C736.988953,446.436188 738.706238,446.419342 740.104980,446.865601 
	C742.778320,447.718567 745.439514,448.723022 747.934937,449.998749 
	C754.578857,453.395294 761.243713,453.463409 768.371948,450.391510 
z"/>
<path fill="#000000" opacity="1.000000" stroke="none" 
	d="
M565.003662,332.003113 
	C564.417419,329.431366 562.822205,326.742737 566.378662,323.924042 
	C568.616455,327.034027 568.918152,329.425049 565.327515,331.858734 
	C564.994690,331.995392 565.000000,332.000122 565.003662,332.003113 
z"/>
</svg>